<svg width="228" height="234" viewBox="0 0 228 234" fill="none" xmlns="http://www.w3.org/2000/svg">
<g clip-path="url(#clip0_1_2)">
<path d="M75.9 151.3C34.3 151.3 0.5 117.5 0.5 75.9C0.5 34.3 34.3 0.5 75.9 0.5C117.5 0.5 151.3 34.3 151.3 75.9C151.3 117.5 117.5 151.3 75.9 151.3ZM75.9 9.1C39.1 9.1 9.1 39.1 9.1 75.9C9.1 112.7 39.1 142.7 75.9 142.7C112.7 142.7 142.7 112.7 142.7 75.9C142.7 39.1 112.7 9.1 75.9 9.1Z" fill="black"/>
<path d="M9.1 75.9C9.1 39.1 39.1 9.1 75.9 9.1C112.7 9.1 142.7 39.1 142.7 75.9C142.7 112.7 112.7 142.7 75.9 142.7C39.1 142.7 9.1 112.7 9.1 75.9Z" fill="#EA4747"/>
<path d="M104.7 111.6C103.2 111.6 101.7 110.8 100.9 109.4C96.5 101.3 86.7 96.1 75.9 96.1C65.1 96.1 55.3 101.3 50.9 109.4C49.8 111.5 47.1 112.3 45.1 111.1C43 110 42.2 107.3 43.4 105.3C49.3 94.5 62 87.5 75.9 87.5C89.8 87.5 102.5 94.5 108.4 105.3C109.5 107.4 108.8 110 106.7 111.1C106.1 111.5 105.4 111.6 104.7 111.6Z" fill="black"/>
<path d="M49.6 76.1C55.0676 76.1 59.5 70.9065 59.5 64.5C59.5 58.0935 55.0676 52.9 49.6 52.9C44.1324 52.9 39.7 58.0935 39.7 64.5C39.7 70.9065 44.1324 76.1 49.6 76.1Z" fill="black"/>
<path d="M102.2 76.1C107.668 76.1 112.1 70.9065 112.1 64.5C112.1 58.0935 107.668 52.9 102.2 52.9C96.7324 52.9 92.3 58.0935 92.3 64.5C92.3 70.9065 96.7324 76.1 102.2 76.1Z" fill="black"/>
<path d="M192.6 233.3C192.1 233.3 191.7 233.3 191.2 233.2C182.9 232.2 174 225.6 174.1 210.1C174.2 198.1 177.3 190.6 179 186.8H152C143.4 186.8 136.5 179.8 136.5 171.3C136.5 166.7 138.6 162.3 141.9 159.3C139.8 156.6 138.5 153.1 138.5 149.6C138.5 143.7 141.8 138.4 146.6 135.5C145.2 133.1 144.4 130.3 144.4 127.2C144.4 118.3 151.7 111 160.6 111C160.8 111 185.6 110.9 197.8 110.9C214.4 110.9 227.3 123.7 227.8 140.7C227.8 141 227.8 146.8 227.8 158.1C227.8 171 222.9 178 218.1 184.7C217.4 185.8 216.6 186.8 215.8 187.9C206.5 201.6 203.9 218.4 203.1 224C202.2 229.5 197.8 233.3 192.6 233.3ZM192.6 119.5L160.6 119.6C156.4 119.6 153 123 153 127.2C153 130.1 154.4 132.6 156.5 133.4C158.4 134.1 159.6 136.2 159.2 138.2C158.8 140.2 157 141.7 155 141.7C150.8 141.7 147 145.5 147 149.6C147 152.2 148.8 155 151 155.9C152.7 156.6 153.8 158.3 153.7 160.2C153.6 162.1 152.3 163.6 150.5 164.1C147.5 164.8 145.1 168.1 145.1 171.4C145.1 175.2 148.2 178.3 152 178.3H180.9C185.5 178.3 188.3 181 188.3 185.7C188.3 187.1 187.8 188.3 187 190C185.5 193.4 182.7 199.6 182.6 210.3C182.5 222.3 189.3 224.4 192.2 224.8C193.7 225 194.4 223.8 194.5 222.7C197 206.4 201.7 193.4 208.6 183.1C209.4 181.9 210.2 180.8 211 179.7C215.5 173.3 219.1 168.3 219.1 158.1C219.1 151.5 219.1 141.5 219.1 140.9C218.7 128.8 209.5 119.6 197.7 119.5C196.2 119.5 192.6 119.5 192.6 119.5Z" fill="black"/>
<path d="M192.6 233.3C192.1 233.3 191.7 233.3 191.2 233.2C182.9 232.2 174 225.6 174.1 210.1C174.2 198.1 177.3 190.6 179 186.8H152C143.4 186.8 136.5 179.8 136.5 171.3C136.5 166.7 138.6 162.3 141.9 159.3C139.8 156.6 138.5 153.1 138.5 149.6C138.5 143.7 141.8 138.4 146.6 135.5C145.2 133.1 144.4 130.3 144.4 127.2C144.4 118.3 151.7 111 160.6 111C160.8 111 185.6 110.9 197.8 110.9C214.4 110.9 227.3 123.7 227.8 140.7C227.8 141 227.8 146.8 227.8 158.1C227.8 171 222.9 178 218.1 184.7C217.4 185.8 216.6 186.8 215.8 187.9C206.5 201.6 203.9 218.4 203.1 224C202.2 229.5 197.8 233.3 192.6 233.3ZM192.6 119.5L160.6 119.6C156.4 119.6 153 123 153 127.2C153 130.1 154.4 132.6 156.5 133.4C158.4 134.1 159.6 136.2 159.2 138.2C158.8 140.2 157 141.7 155 141.7C150.8 141.7 147 145.5 147 149.6C147 152.2 148.8 155 151 155.9C152.7 156.6 153.8 158.3 153.7 160.2C153.6 162.1 152.3 163.6 150.5 164.1C147.5 164.8 145.1 168.1 145.1 171.4C145.1 175.2 148.2 178.3 152 178.3H180.9C185.5 178.3 188.3 181 188.3 185.7C188.3 187.1 187.8 188.3 187 190C185.5 193.4 182.7 199.6 182.6 210.3C182.5 222.3 189.3 224.4 192.2 224.8C193.7 225 194.4 223.8 194.5 222.7C197 206.4 201.7 193.4 208.6 183.1C209.4 181.9 210.2 180.8 211 179.7C215.5 173.3 219.1 168.3 219.1 158.1C219.1 151.5 219.1 141.5 219.1 140.9C218.7 128.8 209.5 119.6 197.7 119.5C196.2 119.5 192.6 119.5 192.6 119.5Z" fill="black"/>
<path d="M160.6 119.6L192.6 119.5H197.7C209.5 119.6 218.7 128.8 219.1 140.9V158.1C219.1 168.182 215.582 173.184 211.155 179.479L211 179.7C210.2 180.8 209.4 181.9 208.6 183.1C201.7 193.4 197 206.4 194.5 222.7C194.4 223.8 193.7 225 192.2 224.8C189.3 224.4 182.5 222.3 182.6 210.3C182.699 199.744 185.425 193.568 186.939 190.139L187 190C187.8 188.3 188.3 187.1 188.3 185.7C188.3 181 185.5 178.3 180.9 178.3H152C148.2 178.3 145.1 175.2 145.1 171.4C145.1 168.1 147.5 164.8 150.5 164.1C152.3 163.6 153.6 162.1 153.7 160.2C153.8 158.3 152.7 156.6 151 155.9C148.8 155 147 152.2 147 149.6C147 145.5 150.8 141.7 155 141.7C157 141.7 158.8 140.2 159.2 138.2C159.6 136.2 158.4 134.1 156.5 133.4C154.4 132.6 153 130.1 153 127.2C153 123 156.4 119.6 160.6 119.6Z" fill="#EA4747"/>
<path d="M162.9 164.2H149.7C147.3 164.2 145.4 162.3 145.4 159.9C145.4 157.5 147.3 155.6 149.7 155.6H162.9C165.3 155.6 167.2 157.5 167.2 159.9C167.3 162.2 165.3 164.2 162.9 164.2Z" fill="black"/>
<path d="M162.9 141.7H155.1C152.7 141.7 150.8 139.8 150.8 137.4C150.8 135 152.7 133.1 155.1 133.1H162.9C165.3 133.1 167.2 135 167.2 137.4C167.3 139.7 165.3 141.7 162.9 141.7Z" fill="black"/>
</g>
<defs>
<clipPath id="clip0_1_2">
<rect width="227.3" height="232.8" fill="white" transform="translate(0.5 0.5)"/>
</clipPath>
</defs>
</svg>
