<svg width="199" height="219" viewBox="0 0 199 219" fill="none" xmlns="http://www.w3.org/2000/svg">
<g clip-path="url(#clip0_2_26)">
<path d="M74.4424 0C33.3381 0 0 33.2749 0 74.3792C0 115.484 33.3381 148.885 74.5055 148.885C115.673 148.885 149.011 115.547 149.011 74.3792C149.011 33.2118 115.547 0 74.4424 0ZM74.4424 137.961C39.3364 137.961 10.8601 109.548 10.8601 74.3792C10.8601 39.2732 39.2732 10.797 74.4424 10.797C109.548 10.797 138.025 39.2101 138.025 74.3792C137.961 109.548 109.548 137.961 74.4424 137.961Z" fill="black"/>
<path d="M10.8601 74.3792C10.8601 109.548 39.3364 137.961 74.4424 137.961C109.548 137.961 137.961 109.548 138.025 74.3792C138.025 39.2101 109.548 10.797 74.4424 10.797C39.2732 10.797 10.8601 39.2732 10.8601 74.3792Z" fill="#858585"/>
<path d="M70.5277 93.5107C68.3809 93.5107 66.4867 91.8691 66.2341 89.6592C65.9184 86.8178 65.729 83.3451 65.729 81.6403C65.729 79.5567 66.171 77.3468 67.1812 75.2C68.1283 73.0533 70.6539 70.0225 74.5055 66.171C78.5465 62.3194 81.0089 60.9935 81.9561 59.0361C82.84 57.0788 83.282 55.3108 83.282 53.5429C83.282 50.449 82.1455 47.9866 79.9987 46.2818C77.8519 44.4507 75.0738 43.5668 71.6642 43.5668C68.1283 43.5668 64.845 44.3876 61.8143 46.0292C59.2887 47.4815 56.1948 45.6504 56.1948 42.7459C56.1948 41.42 56.9525 40.0309 58.1522 39.4626C62.8877 36.937 67.8126 35.6111 72.927 35.6111C78.8622 35.6111 83.5977 37.1264 87.1967 40.094C90.7957 43.1248 92.6268 47.1658 92.6268 52.3433C92.6268 54.8057 92.1216 57.2682 91.0482 59.9201C89.9749 62.4457 87.1967 64.3399 82.7769 68.6334C79.4304 71.7905 77.1574 74.3161 75.9577 76.1471C74.8212 77.9782 74.2529 79.8724 74.2529 82.0192C74.2529 83.3451 74.3792 86.0602 74.7581 88.712C75.2 91.2377 73.1796 93.5107 70.5277 93.5107ZM65.9816 107.149C65.9816 105.507 66.613 104.055 67.8126 102.855C69.0123 101.656 70.5277 101.024 72.1693 101.024C73.8741 101.024 75.3263 101.656 76.526 102.855C77.7256 104.055 78.3571 105.507 78.3571 107.149C78.3571 108.728 77.7888 110.18 76.526 111.379C75.3263 112.579 73.8741 113.21 72.2956 113.21C70.3382 113.21 68.8229 112.579 67.6232 111.379C66.5498 110.117 65.9816 108.664 65.9816 107.149Z" fill="black"/>
<path d="M156.333 197.9C154.186 197.9 152.292 196.258 152.039 194.048C151.724 191.207 151.534 187.734 151.534 186.029C151.534 183.946 151.976 181.736 152.986 179.589C153.934 177.442 156.459 174.411 160.311 170.56C164.352 166.708 166.814 165.382 167.761 163.425C168.645 161.468 169.087 159.7 169.087 157.932C169.087 154.838 167.951 152.375 165.804 150.671C163.657 148.84 160.879 147.956 157.469 147.956C153.934 147.956 150.65 148.776 147.619 150.418C145.094 151.87 142 150.039 142 147.135C142 145.809 142.758 144.42 143.957 143.852C148.693 141.326 153.618 140 158.732 140C164.667 140 169.403 141.515 173.002 144.483C176.601 147.514 178.432 151.555 178.432 156.732C178.432 159.195 177.927 161.657 176.853 164.309C175.78 166.835 173.002 168.729 168.582 173.022C165.236 176.179 162.963 178.705 161.763 180.536C160.626 182.367 160.058 184.261 160.058 186.408C160.058 187.734 160.184 190.449 160.563 193.101C161.005 195.627 158.985 197.9 156.333 197.9ZM151.787 211.538C151.787 209.896 152.418 208.444 153.618 207.244C154.817 206.045 156.333 205.413 157.974 205.413C159.679 205.413 161.131 206.045 162.331 207.244C163.531 208.444 164.162 209.896 164.162 211.538C164.162 213.116 163.594 214.569 162.331 215.768C161.131 216.968 159.679 217.599 158.101 217.599C156.143 217.599 154.628 216.968 153.428 215.768C152.355 214.506 151.787 213.053 151.787 211.538Z" fill="black"/>
</g>
<defs>
<clipPath id="clip0_2_26">
<rect width="198.6" height="218.9" fill="white"/>
</clipPath>
</defs>
</svg>
