<svg width="200" height="220" viewBox="0 0 200 220" fill="none" xmlns="http://www.w3.org/2000/svg">
<g clip-path="url(#clip0_1_12)">
<path d="M75.9 151.3C34.3 151.3 0.5 117.5 0.5 75.9C0.5 34.3 34.3 0.5 75.9 0.5C117.5 0.5 151.3 34.3 151.3 75.9C151.3 117.5 117.4 151.3 75.9 151.3ZM75.9 9.1C39.1 9.1 9.1 39.1 9.1 75.9C9.1 112.7 39.1 142.7 75.9 142.7C112.7 142.7 142.7 112.7 142.7 75.9C142.7 39.1 112.7 9.1 75.9 9.1Z" fill="black"/>
<path d="M9.1 75.9C9.1 39.1 39.1 9.1 75.9 9.1C112.7 9.1 142.7 39.1 142.7 75.9C142.7 112.7 112.7 142.7 75.9 142.7C39.1 142.7 9.1 112.7 9.1 75.9Z" fill="#FFB100"/>
<path d="M104.2 106.1H47.5C45.1 106.1 43.2 104.2 43.2 101.8C43.2 99.4 45.1 97.5 47.5 97.5H104.2C106.6 97.5 108.5 99.4 108.5 101.8C108.5 104.1 106.6 106.1 104.2 106.1Z" fill="black"/>
<path d="M49.6 77.1C55.0676 77.1 59.5 71.9065 59.5 65.5C59.5 59.0935 55.0676 53.9 49.6 53.9C44.1324 53.9 39.7 59.0935 39.7 65.5C39.7 71.9065 44.1324 77.1 49.6 77.1Z" fill="black"/>
<path d="M102.2 77.1C107.668 77.1 112.1 71.9065 112.1 65.5C112.1 59.0935 107.668 53.9 102.2 53.9C96.7324 53.9 92.3 59.0935 92.3 65.5C92.3 71.9065 96.7324 77.1 102.2 77.1Z" fill="black"/>
<path d="M142.8 219.4C134.7 219.4 128.1 212.8 128.1 204.7V182.2C124.4 183.8 117.5 186.5 106.8 186.6C106.7 186.6 106.7 186.6 106.6 186.6C92.2 186.6 86.1 178.3 85.1 170.5C84.4 164.9 88.2 160 94 159.1C101.7 157.9 112.3 154 126.3 147.1C134.8 142.9 141.4 140.1 155.1 140.1C162.3 140.1 170.9 140.1 171.2 140.1C188.4 140.6 199.1 150.6 199.1 166.4C199.1 176.2 199 196.8 199 196.8C199 205.2 192.1 212.1 183.7 212.1C180.9 212.1 178.3 211.4 176.1 210.2C173.3 214.6 168.4 217.6 162.9 217.6C159.6 217.6 156.5 216.5 153.9 214.6C151.1 217.6 147 219.4 142.8 219.4ZM129.6 172.8C134 172.8 136.7 175.6 136.7 180V204.8C136.7 208.1 139.4 210.9 142.8 210.9C145.7 210.9 148.5 208.8 149.2 206.2C149.7 204.4 151.2 203.1 153.1 203C155 202.9 156.7 204 157.4 205.7C158.2 207.7 160.6 209.2 162.9 209.2C166.5 209.2 169.9 205.8 169.9 202.2C169.9 200.1 171.4 198.3 173.4 198C175.4 197.6 177.5 198.8 178.2 200.7C178.9 202.5 181.1 203.7 183.6 203.7C187.3 203.7 190.3 200.7 190.3 197C190.3 197 190.4 176.5 190.4 166.6C190.4 151.7 178.2 149.1 170.9 148.9C170.4 148.9 161.2 148.9 155 148.9C143.6 148.9 138.4 150.8 130.1 155C115.3 162.3 103.9 166.5 95.3 167.8C95 167.8 93.5 168.2 93.7 169.6C94 172.2 95.9 178.2 106.7 178.2H106.8C116.6 178.2 122.4 175.6 125.5 174.2C127.1 173.3 128.2 172.8 129.6 172.8Z" fill="black"/>
<path d="M136.7 180C136.7 175.6 134 172.8 129.6 172.8C128.2 172.8 127.1 173.3 125.5 174.2C122.4 175.6 116.6 178.2 106.8 178.2H106.7C95.9 178.2 94 172.2 93.7 169.6C93.5 168.2 95 167.8 95.3 167.8C103.9 166.5 115.3 162.3 130.1 155C138.4 150.8 143.6 148.9 155 148.9H170.9C178.2 149.1 190.4 151.7 190.4 166.6C190.4 176.5 190.3 197 190.3 197C190.3 200.7 187.3 203.7 183.6 203.7C181.1 203.7 178.9 202.5 178.2 200.7C177.5 198.8 175.4 197.6 173.4 198C171.4 198.3 169.9 200.1 169.9 202.2C169.9 205.8 166.5 209.2 162.9 209.2C160.6 209.2 158.2 207.7 157.4 205.7C156.7 204 155 202.9 153.1 203C151.2 203.1 149.7 204.4 149.2 206.2C148.5 208.8 145.7 210.9 142.8 210.9C139.4 210.9 136.7 208.1 136.7 204.8V180Z" fill="#EAA200"/>
<path d="M153.4 211.2C151 211.2 149.1 209.3 149.1 206.9V194.7C149.1 192.3 151 190.4 153.4 190.4C155.8 190.4 157.7 192.3 157.7 194.7V206.9C157.7 209.3 155.8 211.2 153.4 211.2Z" fill="black"/>
<path d="M174.2 206.2C171.8 206.2 169.9 204.3 169.9 201.9V194.6C169.9 192.2 171.8 190.3 174.2 190.3C176.6 190.3 178.5 192.2 178.5 194.6V201.9C178.5 204.3 176.6 206.2 174.2 206.2Z" fill="black"/>
</g>
<defs>
<clipPath id="clip0_1_12">
<rect width="198.6" height="218.9" fill="white" transform="translate(0.5 0.5)"/>
</clipPath>
</defs>
</svg>
