<svg width="214" height="210" viewBox="0 0 214 210" fill="none" xmlns="http://www.w3.org/2000/svg">
<g clip-path="url(#clip0_1_23)">
<path d="M75.4 150.8C33.8 150.8 0 117 0 75.4C0 33.8 33.8 0 75.4 0C117 0 150.8 33.8 150.8 75.4C150.8 117 117 150.8 75.4 150.8ZM75.4 8.6C38.6 8.6 8.6 38.6 8.6 75.4C8.6 112.2 38.6 142.2 75.4 142.2C112.2 142.2 142.2 112.2 142.2 75.4C142.2 38.6 112.2 8.6 75.4 8.6Z" fill="black"/>
<path d="M8.6 75.4C8.6 38.6 38.6 8.6 75.4 8.6C112.2 8.6 142.2 38.6 142.2 75.4C142.2 112.2 112.2 142.2 75.4 142.2C38.6 142.2 8.6 112.2 8.6 75.4Z" fill="#51FF00"/>
<path d="M75.4 122.7C58.5 122.7 42.7 111.4 38.7 96.4C38.4 95.1 38.6 93.7 39.4 92.7C40.2 91.6 41.5 91 42.8 91H107.9C109.3 91 110.5 91.6 111.4 92.7C112.2 93.8 112.5 95.2 112.1 96.5C107.3 112.2 92.6 122.7 75.4 122.7ZM49.3 99.6C54.2 108.1 64.7 114.1 75.4 114.1C86.6 114.1 96.4 108.4 101.5 99.6H49.3Z" fill="black"/>
<path d="M49.1 76.6C54.5676 76.6 59 71.4065 59 65C59 58.5935 54.5676 53.4 49.1 53.4C43.6324 53.4 39.2 58.5935 39.2 65C39.2 71.4065 43.6324 76.6 49.1 76.6Z" fill="black"/>
<path d="M101.7 76.6C107.168 76.6 111.6 71.4065 111.6 65C111.6 58.5935 107.168 53.4 101.7 53.4C96.2324 53.4 91.8 58.5935 91.8 65C91.8 71.4065 96.2324 76.6 101.7 76.6Z" fill="black"/>
<path d="M121.593 149.321C121.606 140.515 129.305 133.351 138.741 133.365L164.95 133.405C163.092 129.38 159.959 121.873 159.86 110.24C159.86 110.131 159.86 110.131 159.86 110.023C159.884 94.3672 169.562 87.75 178.65 86.6766C185.174 85.9254 190.876 90.0654 191.914 96.3727C193.3 104.746 197.825 116.277 205.839 131.51C210.718 140.759 213.969 147.939 213.946 162.834C213.934 170.662 213.92 180.011 213.919 180.338C213.309 199.036 201.642 210.652 183.238 210.624C171.822 210.607 147.826 210.461 147.826 210.461C138.041 210.447 130.015 202.933 130.029 193.8C130.033 190.756 130.853 187.931 132.255 185.541C127.134 182.489 123.647 177.156 123.656 171.177C123.662 167.589 124.948 164.221 127.166 161.397C123.676 158.348 121.586 153.887 121.593 149.321ZM175.897 135.053C175.89 139.836 172.624 142.767 167.498 142.759L138.61 142.715C134.766 142.709 131.5 145.64 131.494 149.336C131.489 152.489 133.931 155.537 136.958 156.303C139.054 156.849 140.566 158.482 140.68 160.548C140.793 162.614 139.509 164.46 137.527 165.218C135.196 166.085 133.445 168.691 133.441 171.192C133.435 175.106 137.39 178.808 141.584 178.815C144.03 178.818 146.124 180.452 146.47 182.627C146.933 184.802 145.532 187.083 143.317 187.841C141.219 188.599 139.818 190.988 139.814 193.706C139.808 197.729 143.297 200.996 147.607 201.002C147.607 201.002 171.487 201.147 183.019 201.165C200.375 201.191 203.424 187.932 203.669 179.996C203.67 179.452 203.685 169.45 203.695 162.71C203.714 150.316 201.51 144.659 196.631 135.628C188.152 119.524 183.278 107.123 181.778 97.7707C181.779 97.4446 181.315 95.8131 179.684 96.028C176.655 96.3496 169.662 98.4046 169.645 110.146L169.645 110.255C169.628 120.91 172.647 127.22 174.273 130.593C175.319 132.334 175.899 133.531 175.897 135.053Z" fill="black"/>
<path d="M167.498 142.759C172.624 142.767 175.89 139.836 175.897 135.053C175.899 133.531 175.319 132.334 174.273 130.593C172.647 127.22 169.628 120.91 169.645 110.255L169.645 110.146C169.662 98.4046 176.655 96.3496 179.684 96.028C181.315 95.8131 181.779 97.4446 181.778 97.7707C183.278 107.123 188.152 119.524 196.631 135.628C201.51 144.659 203.714 150.316 203.695 162.71L203.669 179.996C203.424 187.932 200.375 201.191 183.019 201.165C171.487 201.147 147.607 201.002 147.607 201.002C143.297 200.996 139.808 197.729 139.814 193.706C139.818 190.988 141.219 188.599 143.317 187.841C145.532 187.083 146.933 184.802 146.47 182.627C146.124 180.452 144.03 178.818 141.584 178.815C137.39 178.808 133.435 175.106 133.441 171.192C133.445 168.691 135.196 166.085 137.527 165.218C139.509 164.46 140.793 162.614 140.68 160.548C140.566 158.482 139.054 156.849 136.958 156.303C133.931 155.537 131.489 152.489 131.494 149.336C131.5 145.64 134.766 142.709 138.61 142.715L167.498 142.759Z" fill="#51FF00"/>
<path d="M131.127 160.86C131.131 158.251 133.348 156.188 136.143 156.193L150.355 156.214C153.15 156.218 155.36 158.287 155.356 160.897C155.352 163.506 153.136 165.568 150.34 165.564L136.129 165.542C133.333 165.538 131.123 163.469 131.127 160.86Z" fill="black"/>
<path d="M136.917 183.482C136.921 180.873 139.138 178.811 141.933 178.815L150.437 178.828C153.232 178.832 155.442 180.901 155.438 183.51C155.435 186.12 153.218 188.182 150.422 188.178L141.919 188.165C139.123 188.161 136.913 186.092 136.917 183.482Z" fill="black"/>
</g>
<defs>
<clipPath id="clip0_1_23">
<rect width="213.9" height="209.4" fill="white"/>
</clipPath>
</defs>
</svg>
